<svg width="110" height="110" viewBox="0 0 110 110" fill="none" xmlns="http://www.w3.org/2000/svg">
<rect width="110" height="110" fill="black"/>
<path d="M37.0723 49.1562V47.8906H56.0566V49.1562H37.0723ZM37.0723 51.6875V50.4219H56.0566V51.6875H37.0723ZM37.0723 54.2188V52.9531H56.0566V54.2188H50.9941V77H49.7285V54.2188H48.4629V77H47.1973V54.2188H45.9316V77H44.666V54.2188H43.4004V77H42.1348V54.2188H37.0723ZM68.502 62.5156H76.1309C77.291 62.5156 78.2695 62.1406 79.0664 61.3906C79.875 60.6406 80.2793 59.5742 80.2793 58.1914C80.2793 57.1719 79.8574 56.2578 79.0137 55.4492C78.1699 54.6289 77.209 54.2188 76.1309 54.2188H65.2676V77H64.002V52.9531H76.1309C77.5605 52.9531 78.8203 53.4863 79.9102 54.5527C81 55.6074 81.5449 56.8203 81.5449 58.1914C81.5449 59.8789 81.0176 61.2324 79.9629 62.252C78.9082 63.2715 77.6309 63.7812 76.1309 63.7812H68.502V62.5156ZM68.502 65.0469H76.1309C77.959 65.0469 79.5293 64.4082 80.8418 63.1309C82.1543 61.8418 82.8105 60.1953 82.8105 58.1914C82.8105 56.4688 82.1367 54.957 80.7891 53.6562C79.4531 52.3438 77.9004 51.6875 76.1309 51.6875H62.7363V77H61.4707V50.4219H76.1309C77.5254 50.4219 78.832 50.7793 80.0508 51.4941C81.2812 52.209 82.2598 53.1699 82.9863 54.377C83.7129 55.5723 84.0762 56.8438 84.0762 58.1914C84.0762 60.5 83.291 62.4336 81.7207 63.9922C80.1621 65.5391 78.2988 66.3125 76.1309 66.3125H68.502V65.0469ZM68.502 67.5781H76.1309C77.7715 67.5781 79.2949 67.1738 80.7012 66.3652C82.1074 65.5566 83.2324 64.4316 84.0762 62.9902C84.9199 61.5371 85.3418 59.9375 85.3418 58.1914C85.3418 56.6094 84.9199 55.127 84.0762 53.7441C83.2441 52.3496 82.1191 51.2363 80.7012 50.4043C79.2832 49.5723 77.7598 49.1562 76.1309 49.1562H60.2051V77H58.9395V47.8906H76.1309C77.9707 47.8906 79.6992 48.3652 81.3164 49.3145C82.9336 50.252 84.2168 51.5176 85.166 53.1113C86.127 54.6934 86.6074 56.3867 86.6074 58.1914C86.6074 60.2773 86.1562 62.1113 85.2539 63.6934C84.3633 65.2754 83.1504 66.5117 81.6152 67.4023L84.8848 77H83.5488L80.4199 68C79.9512 68.1875 79.5938 68.3164 79.3477 68.3867L82.2832 77H80.9473L78.082 68.6855C77.9766 68.709 77.6016 68.75 76.957 68.8086L79.6816 77H78.3457L75.6562 68.8438H74.5137L77.0801 77H75.7441L73.1602 68.8438H68.502V67.5781ZM67.7988 77H66.5332V55.4844H76.1309C76.916 55.4844 77.5898 55.7539 78.1523 56.293C78.7266 56.8203 79.0137 57.4531 79.0137 58.1914C79.0137 60.2305 78.0527 61.25 76.1309 61.25H68.502V59.9844H76.1309C76.6348 59.9844 77.0273 59.8555 77.3086 59.5977C77.6016 59.3281 77.748 58.8594 77.748 58.1914C77.748 57.7812 77.5898 57.4414 77.2734 57.1719C76.9688 56.8906 76.5879 56.75 76.1309 56.75H67.7988V77Z" fill="white"/>
</svg>
