<svg width="139" height="21" viewBox="0 0 139 21" fill="none" xmlns="http://www.w3.org/2000/svg">
<path d="M0.714844 1.4375V0.59375H13.3711V1.4375H0.714844ZM0.714844 3.125V2.28125H13.3711V3.125H0.714844ZM0.714844 4.8125V3.96875H13.3711V4.8125H9.99609V20H9.15234V4.8125H8.30859V20H7.46484V4.8125H6.62109V20H5.77734V4.8125H4.93359V20H4.08984V4.8125H0.714844ZM21.668 11.9375H26.7539C27.4258 11.9375 27.9961 11.7266 28.4648 11.3047C28.9336 10.8828 29.168 10.2891 29.168 9.52344C29.168 8.96094 28.9219 8.45703 28.4297 8.01172C27.9453 7.56641 27.3867 7.34375 26.7539 7.34375H19.5117V20H18.668V6.5H26.7539C27.6211 6.5 28.3789 6.80469 29.0273 7.41406C29.6836 8.02344 30.0117 8.72656 30.0117 9.52344C30.0117 10.5156 29.6953 11.3086 29.0625 11.9023C28.4297 12.4883 27.6602 12.7812 26.7539 12.7812H21.668V11.9375ZM21.668 13.625H26.7539C27.8789 13.625 28.8438 13.2422 29.6484 12.4766C30.4531 11.7109 30.8555 10.7266 30.8555 9.52344C30.8555 8.5 30.4453 7.60156 29.625 6.82812C28.8047 6.04688 27.8477 5.65625 26.7539 5.65625H17.8242V20H16.9805V4.8125H26.7539C28.082 4.8125 29.2383 5.28516 30.2227 6.23047C31.207 7.16797 31.6992 8.26562 31.6992 9.52344C31.6992 10.9297 31.2109 12.1055 30.2344 13.0508C29.2656 13.9961 28.1055 14.4688 26.7539 14.4688H21.668V13.625ZM21.668 15.3125H26.7539C27.793 15.3125 28.7539 15.0625 29.6367 14.5625C30.5195 14.0625 31.2227 13.3672 31.7461 12.4766C32.2773 11.5859 32.543 10.6016 32.543 9.52344C32.543 8.54688 32.2812 7.63281 31.7578 6.78125C31.2344 5.92188 30.5234 5.23828 29.625 4.73047C28.7344 4.22266 27.7773 3.96875 26.7539 3.96875H16.1367V20H15.293V3.125H26.7539C27.6367 3.125 28.4844 3.30078 29.2969 3.65234C30.1172 3.99609 30.8242 4.45703 31.418 5.03516C32.0117 5.60547 32.4883 6.28516 32.8477 7.07422C33.207 7.86328 33.3867 8.67969 33.3867 9.52344C33.3867 10.8906 33.0742 12.0859 32.4492 13.1094C31.8242 14.125 30.9844 14.8984 29.9297 15.4297L31.6992 20H30.7969L29.1211 15.7695C28.9102 15.8398 28.6641 15.9102 28.3828 15.9805L29.9648 20H29.0625L27.5156 16.1211C27.2734 16.1445 27.0195 16.1562 26.7539 16.1562L28.2422 20H27.3516L25.875 16.1562H25.1133L26.5312 20H25.6406L24.2109 16.1562H21.668V15.3125ZM21.1992 20H20.3555V8.1875H26.7539C27.1914 8.1875 27.5625 8.32031 27.8672 8.58594C28.1719 8.84375 28.3242 9.15625 28.3242 9.52344C28.3242 10.5703 27.8008 11.0938 26.7539 11.0938H21.668V10.25H26.7539C27.2383 10.25 27.4805 10.0078 27.4805 9.52344C27.4805 9.39062 27.4062 9.27734 27.2578 9.18359C27.1172 9.08203 26.9492 9.03125 26.7539 9.03125H21.1992V20ZM47.2383 11.6797C47.2383 10.6797 46.9297 9.90625 46.3125 9.35938C45.6953 8.8125 44.8789 8.53906 43.8633 8.53906C43.0039 8.53906 42.2656 8.83594 41.6484 9.42969C41.0312 10.0234 40.7227 10.7344 40.7227 11.5625C40.7227 12.0312 40.7852 12.4531 40.9102 12.8281C41.0352 13.1953 41.2031 13.5039 41.4141 13.7539C41.6328 13.9961 41.8906 14.1992 42.1875 14.3633C42.4844 14.5195 42.793 14.6328 43.1133 14.7031C43.4414 14.7734 43.7891 14.8086 44.1562 14.8086C45.0469 14.8086 45.8594 14.5898 46.5938 14.1523V14.9961C45.8359 15.3945 45.0195 15.5938 44.1445 15.5938C43.582 15.5938 43.0508 15.5195 42.5508 15.3711C42.0586 15.2148 41.6094 14.9844 41.2031 14.6797C40.7969 14.3672 40.4727 13.9453 40.2305 13.4141C39.9961 12.875 39.8789 12.2578 39.8789 11.5625C39.8789 10.4844 40.2578 9.57031 41.0156 8.82031C41.7734 8.07031 42.7227 7.69531 43.8633 7.69531C45.1211 7.69531 46.1367 8.05078 46.9102 8.76172C47.6914 9.46484 48.082 10.4375 48.082 11.6797V20H47.2383V11.6797ZM49.7695 11.6797V20H48.9258V11.6797C48.9258 10.2031 48.4531 9.03125 47.5078 8.16406C46.5625 7.28906 45.3477 6.85156 43.8633 6.85156C42.4883 6.85156 41.3398 7.30859 40.418 8.22266C39.4961 9.13672 39.0352 10.25 39.0352 11.5625C39.0352 12.3594 39.1719 13.0742 39.4453 13.707C39.7266 14.3398 40.1055 14.8477 40.582 15.2305C41.0586 15.6133 41.5898 15.9062 42.1758 16.1094C42.7695 16.3047 43.3945 16.4023 44.0508 16.4023C44.9414 16.4023 45.7891 16.1953 46.5938 15.7812V16.6719C45.75 17.0234 44.8984 17.1992 44.0391 17.1992C43.2656 17.1992 42.5312 17.082 41.8359 16.8477C41.1406 16.6055 40.5195 16.2578 39.9727 15.8047C39.4258 15.3438 38.9922 14.75 38.6719 14.0234C38.3516 13.2891 38.1914 12.4688 38.1914 11.5625C38.1914 10.0234 38.7344 8.71484 39.8203 7.63672C40.9141 6.55078 42.2617 6.00781 43.8633 6.00781C44.9883 6.00781 45.9961 6.23828 46.8867 6.69922C47.7773 7.15234 48.4805 7.8125 48.9961 8.67969C49.5117 9.54688 49.7695 10.5469 49.7695 11.6797ZM51.457 11.6797V20H50.6133V11.6797C50.6133 10.3906 50.3164 9.25 49.7227 8.25781C49.1367 7.25781 48.332 6.49219 47.3086 5.96094C46.2852 5.42969 45.1367 5.16406 43.8633 5.16406C42.6523 5.16406 41.5469 5.45312 40.5469 6.03125C39.5469 6.60156 38.7617 7.375 38.1914 8.35156C37.6289 9.32812 37.3477 10.3984 37.3477 11.5625C37.3477 12.5625 37.5312 13.4766 37.8984 14.3047C38.2656 15.125 38.7578 15.8008 39.375 16.332C40 16.8633 40.707 17.2773 41.4961 17.5742C42.293 17.8633 43.125 18.0078 43.9922 18.0078C44.875 18.0078 45.7422 17.8242 46.5938 17.457V18.3125C45.7031 18.6484 44.8281 18.8164 43.9688 18.8164C42.6172 18.8164 41.375 18.5117 40.2422 17.9023C39.1094 17.293 38.2031 16.4297 37.5234 15.3125C36.8438 14.1953 36.5039 12.9453 36.5039 11.5625C36.5039 10.5781 36.6914 9.64062 37.0664 8.75C37.4492 7.85938 37.9648 7.08984 38.6133 6.44141C39.2617 5.79297 40.043 5.27734 40.957 4.89453C41.8711 4.51172 42.8398 4.32031 43.8633 4.32031C45.293 4.32031 46.582 4.625 47.7305 5.23438C48.8867 5.84375 49.7969 6.71094 50.4609 7.83594C51.125 8.96094 51.457 10.2422 51.457 11.6797ZM53.1445 11.6797V20H52.3008V11.6797C52.3008 10.0859 51.9297 8.66406 51.1875 7.41406C50.4453 6.15625 49.4336 5.1875 48.1523 4.50781C46.8711 3.82031 45.4414 3.47656 43.8633 3.47656C42.3477 3.47656 40.9609 3.83984 39.7031 4.56641C38.4453 5.29297 37.457 6.27734 36.7383 7.51953C36.0195 8.75391 35.6602 10.1016 35.6602 11.5625C35.6602 12.5234 35.8125 13.4375 36.1172 14.3047C36.4297 15.1641 36.8516 15.918 37.3828 16.5664C37.9219 17.207 38.5391 17.7617 39.2344 18.2305C39.9375 18.6992 40.6914 19.0547 41.4961 19.2969C42.3086 19.5391 43.1328 19.6602 43.9688 19.6602C44.8906 19.6602 45.7656 19.4844 46.5938 19.1328V20C45.7266 20.3047 44.8359 20.457 43.9219 20.457C42.9766 20.457 42.0547 20.3242 41.1562 20.0586C40.2656 19.793 39.4375 19.4023 38.6719 18.8867C37.9141 18.3633 37.2461 17.75 36.668 17.0469C36.0898 16.3359 35.6367 15.5078 35.3086 14.5625C34.9805 13.6172 34.8164 12.6172 34.8164 11.5625C34.8164 10.3516 35.043 9.19922 35.4961 8.10547C35.957 7.00391 36.582 6.05469 37.3711 5.25781C38.168 4.45312 39.1289 3.81641 40.2539 3.34766C41.3867 2.87109 42.5898 2.63281 43.8633 2.63281C45.1602 2.63281 46.3789 2.85156 47.5195 3.28906C48.6602 3.72656 49.6445 4.33594 50.4727 5.11719C51.3008 5.89062 51.9531 6.84375 52.4297 7.97656C52.9062 9.10938 53.1445 10.3438 53.1445 11.6797ZM68.543 13.1914L67.6992 11.6562V3.125H68.543V13.1914ZM70.2305 16.1094L69.3867 14.6797V3.125H70.2305V16.1094ZM58.6055 9.93359L59.4492 11.4688V20H58.6055V9.93359ZM56.918 6.89844L57.7617 8.44531V20H56.918V6.89844ZM57.2109 3.125H58.1953L67.9688 20H66.9844L57.2109 3.125ZM59.2031 3.125H60.1992L69.9609 20H68.9531L59.2031 3.125ZM61.1836 3.125H62.168L71.0742 18.5352V3.125H71.918V20H70.9219L61.1836 3.125ZM56.0742 4.57812V20H55.2305V3.125H56.2383L65.9766 20H65.0039L56.0742 4.57812ZM81.8789 11.9727H80.543C78.9023 11.9727 77.6406 11.6406 76.7578 10.9766C75.875 10.3047 75.4336 9.38281 75.4336 8.21094C75.4336 7.11719 75.9531 6.20703 76.9922 5.48047C78.0312 4.74609 79.4883 4.37891 81.3633 4.37891C82.6133 4.37891 83.7773 4.55078 84.8555 4.89453C85.9414 5.23828 86.8438 5.72266 87.5625 6.34766L86.9062 6.875C86.2656 6.35156 85.4609 5.94531 84.4922 5.65625C83.5234 5.36719 82.4805 5.22266 81.3633 5.22266C79.7148 5.22266 78.4531 5.50391 77.5781 6.06641C76.7109 6.62891 76.2773 7.34375 76.2773 8.21094C76.2773 9.14844 76.6328 9.87109 77.3438 10.3789C78.0625 10.8789 79.1289 11.1289 80.543 11.1289H81.832C83.4961 11.1289 84.7695 11.4648 85.6523 12.1367C86.543 12.8008 86.9883 13.7188 86.9883 14.8906C86.9883 15.9844 86.4688 16.8984 85.4297 17.6328C84.3906 18.3594 82.9336 18.7227 81.0586 18.7227C79.8086 18.7227 78.6406 18.5508 77.5547 18.207C76.4766 17.8633 75.5781 17.3789 74.8594 16.7539L75.5156 16.2266C76.1562 16.75 76.9609 17.1562 77.9297 17.4453C78.8984 17.7344 79.9414 17.8789 81.0586 17.8789C82.707 17.8789 83.9648 17.5977 84.832 17.0352C85.707 16.4727 86.1445 15.7578 86.1445 14.8906C86.1445 13.9531 85.7852 13.2344 85.0664 12.7344C84.3555 12.2266 83.293 11.9727 81.8789 11.9727ZM81.8789 13.6602H80.543C78.3711 13.6602 76.6953 13.168 75.5156 12.1836C74.3359 11.1914 73.7461 9.86719 73.7461 8.21094C73.7461 7.45312 73.9141 6.74219 74.25 6.07812C74.5859 5.41406 75.0664 4.83203 75.6914 4.33203C76.3242 3.82422 77.1289 3.42578 78.1055 3.13672C79.082 2.83984 80.168 2.69141 81.3633 2.69141C82.8711 2.69141 84.2812 2.92188 85.5938 3.38281C86.9062 3.83594 88 4.47266 88.875 5.29297L88.1953 5.79688C87.3984 5.07812 86.4023 4.52344 85.207 4.13281C84.0117 3.73438 82.7305 3.53516 81.3633 3.53516C79.2539 3.53516 77.5977 3.98047 76.3945 4.87109C75.1914 5.76172 74.5898 6.875 74.5898 8.21094C74.5898 9.625 75.1055 10.7461 76.1367 11.5742C77.168 12.4023 78.6367 12.8164 80.543 12.8164H81.832C84.1445 12.8164 85.3008 13.5078 85.3008 14.8906C85.3008 15.5156 84.9453 16.0312 84.2344 16.4375C83.5312 16.8359 82.4727 17.0352 81.0586 17.0352C80.0664 17.0352 79.1445 16.9219 78.293 16.6953C77.4414 16.4609 76.7383 16.1289 76.1836 15.6992L76.8516 15.1836C77.8281 15.8555 79.2305 16.1914 81.0586 16.1914C82.2305 16.1914 83.0898 16.0703 83.6367 15.8281C84.1836 15.5859 84.457 15.2734 84.457 14.8906C84.457 14.4453 84.2656 14.1289 83.8828 13.9414C83.5 13.7539 82.832 13.6602 81.8789 13.6602ZM81.8789 10.2852H80.543C78.2617 10.2852 77.1211 9.59375 77.1211 8.21094C77.1211 7.58594 77.4727 7.07422 78.1758 6.67578C78.8867 6.26953 79.9492 6.06641 81.3633 6.06641C82.3555 6.06641 83.2773 6.18359 84.1289 6.41797C84.9805 6.64453 85.6836 6.97266 86.2383 7.40234L85.5703 7.91797C84.5938 7.24609 83.1914 6.91016 81.3633 6.91016C80.1914 6.91016 79.332 7.03125 78.7852 7.27344C78.2383 7.51562 77.9648 7.82812 77.9648 8.21094C77.9648 8.65625 78.1562 8.97266 78.5391 9.16016C78.9219 9.34766 79.5898 9.44141 80.543 9.44141H81.8789C84.0508 9.44141 85.7266 9.9375 86.9062 10.9297C88.0859 11.9141 88.6758 13.2344 88.6758 14.8906C88.6758 15.6484 88.5078 16.3594 88.1719 17.0234C87.8359 17.6875 87.3516 18.2734 86.7188 18.7812C86.0938 19.2812 85.293 19.6797 84.3164 19.9766C83.3398 20.2656 82.2539 20.4102 81.0586 20.4102C79.5508 20.4102 78.1406 20.1836 76.8281 19.7305C75.5156 19.2695 74.4219 18.6289 73.5469 17.8086L74.2266 17.3047C75.0234 18.0234 76.0195 18.582 77.2148 18.9805C78.4102 19.3711 79.6914 19.5664 81.0586 19.5664C83.168 19.5664 84.8242 19.1211 86.0273 18.2305C87.2305 17.3398 87.832 16.2266 87.832 14.8906C87.832 13.4766 87.3164 12.3555 86.2852 11.5273C85.2539 10.6992 83.7852 10.2852 81.8789 10.2852ZM93.5156 7.80078H94.3594V20H93.5156V7.80078ZM90.1406 3.96875V3.125H102.797V3.96875H90.1406ZM90.1406 5.65625V4.8125H102.797V5.65625H90.1406ZM90.1406 7.34375V6.5H102.797V7.34375H90.1406ZM98.5781 7.80078H99.4219V20H98.5781V7.80078ZM96.8906 7.80078H97.7344V20H96.8906V7.80078ZM95.2031 7.80078H96.0469V20H95.2031V7.80078ZM108.879 20H108.035V3.125H108.879V20ZM107.191 20H106.348V3.125H107.191V20ZM105.504 20H104.66V3.125H105.504V20ZM110.566 15.7812H118.641V16.625H110.566V17.4688H118.641V18.3125H110.566V19.1562H118.641V20H109.723V3.125H118.641V3.96875H110.566V4.8125H118.641V5.65625H110.566V6.5H118.641V7.34375H110.566V9.44141H118.172V10.2852H110.566V11.1289H118.172V11.9727H110.566V12.8164H118.172V13.6602H110.566V15.7812ZM127.043 11.9375H132.129C132.801 11.9375 133.371 11.7266 133.84 11.3047C134.309 10.8828 134.543 10.2891 134.543 9.52344C134.543 8.96094 134.297 8.45703 133.805 8.01172C133.32 7.56641 132.762 7.34375 132.129 7.34375H124.887V20H124.043V6.5H132.129C132.996 6.5 133.754 6.80469 134.402 7.41406C135.059 8.02344 135.387 8.72656 135.387 9.52344C135.387 10.5156 135.07 11.3086 134.438 11.9023C133.805 12.4883 133.035 12.7812 132.129 12.7812H127.043V11.9375ZM127.043 13.625H132.129C133.254 13.625 134.219 13.2422 135.023 12.4766C135.828 11.7109 136.23 10.7266 136.23 9.52344C136.23 8.5 135.82 7.60156 135 6.82812C134.18 6.04688 133.223 5.65625 132.129 5.65625H123.199V20H122.355V4.8125H132.129C133.457 4.8125 134.613 5.28516 135.598 6.23047C136.582 7.16797 137.074 8.26562 137.074 9.52344C137.074 10.9297 136.586 12.1055 135.609 13.0508C134.641 13.9961 133.48 14.4688 132.129 14.4688H127.043V13.625ZM127.043 15.3125H132.129C133.168 15.3125 134.129 15.0625 135.012 14.5625C135.895 14.0625 136.598 13.3672 137.121 12.4766C137.652 11.5859 137.918 10.6016 137.918 9.52344C137.918 8.54688 137.656 7.63281 137.133 6.78125C136.609 5.92188 135.898 5.23828 135 4.73047C134.109 4.22266 133.152 3.96875 132.129 3.96875H121.512V20H120.668V3.125H132.129C133.012 3.125 133.859 3.30078 134.672 3.65234C135.492 3.99609 136.199 4.45703 136.793 5.03516C137.387 5.60547 137.863 6.28516 138.223 7.07422C138.582 7.86328 138.762 8.67969 138.762 9.52344C138.762 10.8906 138.449 12.0859 137.824 13.1094C137.199 14.125 136.359 14.8984 135.305 15.4297L137.074 20H136.172L134.496 15.7695C134.285 15.8398 134.039 15.9102 133.758 15.9805L135.34 20H134.438L132.891 16.1211C132.648 16.1445 132.395 16.1562 132.129 16.1562L133.617 20H132.727L131.25 16.1562H130.488L131.906 20H131.016L129.586 16.1562H127.043V15.3125ZM126.574 20H125.73V8.1875H132.129C132.566 8.1875 132.938 8.32031 133.242 8.58594C133.547 8.84375 133.699 9.15625 133.699 9.52344C133.699 10.5703 133.176 11.0938 132.129 11.0938H127.043V10.25H132.129C132.613 10.25 132.855 10.0078 132.855 9.52344C132.855 9.39062 132.781 9.27734 132.633 9.18359C132.492 9.08203 132.324 9.03125 132.129 9.03125H126.574V20Z" fill="white"/>
</svg>
