<svg width="277" height="40" viewBox="0 0 277 40" fill="none" xmlns="http://www.w3.org/2000/svg">
<path d="M0.429688 1.875V0.1875H25.7422V1.875H0.429688ZM0.429688 5.25V3.5625H25.7422V5.25H0.429688ZM0.429688 8.625V6.9375H25.7422V8.625H18.9922V39H17.3047V8.625H15.6172V39H13.9297V8.625H12.2422V39H10.5547V8.625H8.86719V39H7.17969V8.625H0.429688ZM42.3359 22.875H52.5078C53.8516 22.875 54.9922 22.4531 55.9297 21.6094C56.8672 20.7656 57.3359 19.5781 57.3359 18.0469C57.3359 16.9219 56.8438 15.9141 55.8594 15.0234C54.8906 14.1328 53.7734 13.6875 52.5078 13.6875H38.0234V39H36.3359V12H52.5078C54.2422 12 55.7578 12.6094 57.0547 13.8281C58.3672 15.0469 59.0234 16.4531 59.0234 18.0469C59.0234 20.0312 58.3906 21.6172 57.125 22.8047C55.8594 23.9766 54.3203 24.5625 52.5078 24.5625H42.3359V22.875ZM42.3359 26.25H52.5078C54.7578 26.25 56.6875 25.4844 58.2969 23.9531C59.9062 22.4219 60.7109 20.4531 60.7109 18.0469C60.7109 16 59.8906 14.2031 58.25 12.6562C56.6094 11.0938 54.6953 10.3125 52.5078 10.3125H34.6484V39H32.9609V8.625H52.5078C55.1641 8.625 57.4766 9.57031 59.4453 11.4609C61.4141 13.3359 62.3984 15.5312 62.3984 18.0469C62.3984 20.8594 61.4219 23.2109 59.4688 25.1016C57.5312 26.9922 55.2109 27.9375 52.5078 27.9375H42.3359V26.25ZM42.3359 29.625H52.5078C54.5859 29.625 56.5078 29.125 58.2734 28.125C60.0391 27.125 61.4453 25.7344 62.4922 23.9531C63.5547 22.1719 64.0859 20.2031 64.0859 18.0469C64.0859 16.0938 63.5625 14.2656 62.5156 12.5625C61.4688 10.8438 60.0469 9.47656 58.25 8.46094C56.4688 7.44531 54.5547 6.9375 52.5078 6.9375H31.2734V39H29.5859V5.25H52.5078C54.2734 5.25 55.9688 5.60156 57.5938 6.30469C59.2344 6.99219 60.6484 7.91406 61.8359 9.07031C63.0234 10.2109 63.9766 11.5703 64.6953 13.1484C65.4141 14.7266 65.7734 16.3594 65.7734 18.0469C65.7734 20.7812 65.1484 23.1719 63.8984 25.2188C62.6484 27.25 60.9688 28.7969 58.8594 29.8594L62.3984 39H60.5938L57.2422 30.5391C56.8203 30.6797 56.3281 30.8203 55.7656 30.9609L58.9297 39H57.125L54.0312 31.2422C53.5469 31.2891 53.0391 31.3125 52.5078 31.3125L55.4844 39H53.7031L50.75 31.3125H49.2266L52.0625 39H50.2812L47.4219 31.3125H42.3359V29.625ZM41.3984 39H39.7109V15.375H52.5078C53.3828 15.375 54.125 15.6406 54.7344 16.1719C55.3438 16.6875 55.6484 17.3125 55.6484 18.0469C55.6484 20.1406 54.6016 21.1875 52.5078 21.1875H42.3359V19.5H52.5078C53.4766 19.5 53.9609 19.0156 53.9609 18.0469C53.9609 17.7812 53.8125 17.5547 53.5156 17.3672C53.2344 17.1641 52.8984 17.0625 52.5078 17.0625H41.3984V39ZM93.4766 22.3594C93.4766 20.3594 92.8594 18.8125 91.625 17.7188C90.3906 16.625 88.7578 16.0781 86.7266 16.0781C85.0078 16.0781 83.5312 16.6719 82.2969 17.8594C81.0625 19.0469 80.4453 20.4688 80.4453 22.125C80.4453 23.0625 80.5703 23.9062 80.8203 24.6562C81.0703 25.3906 81.4062 26.0078 81.8281 26.5078C82.2656 26.9922 82.7812 27.3984 83.375 27.7266C83.9688 28.0391 84.5859 28.2656 85.2266 28.4062C85.8828 28.5469 86.5781 28.6172 87.3125 28.6172C89.0938 28.6172 90.7188 28.1797 92.1875 27.3047V28.9922C90.6719 29.7891 89.0391 30.1875 87.2891 30.1875C86.1641 30.1875 85.1016 30.0391 84.1016 29.7422C83.1172 29.4297 82.2188 28.9688 81.4062 28.3594C80.5938 27.7344 79.9453 26.8906 79.4609 25.8281C78.9922 24.75 78.7578 23.5156 78.7578 22.125C78.7578 19.9688 79.5156 18.1406 81.0312 16.6406C82.5469 15.1406 84.4453 14.3906 86.7266 14.3906C89.2422 14.3906 91.2734 15.1016 92.8203 16.5234C94.3828 17.9297 95.1641 19.875 95.1641 22.3594V39H93.4766V22.3594ZM98.5391 22.3594V39H96.8516V22.3594C96.8516 19.4062 95.9062 17.0625 94.0156 15.3281C92.125 13.5781 89.6953 12.7031 86.7266 12.7031C83.9766 12.7031 81.6797 13.6172 79.8359 15.4453C77.9922 17.2734 77.0703 19.5 77.0703 22.125C77.0703 23.7188 77.3438 25.1484 77.8906 26.4141C78.4531 27.6797 79.2109 28.6953 80.1641 29.4609C81.1172 30.2266 82.1797 30.8125 83.3516 31.2188C84.5391 31.6094 85.7891 31.8047 87.1016 31.8047C88.8828 31.8047 90.5781 31.3906 92.1875 30.5625V32.3438C90.5 33.0469 88.7969 33.3984 87.0781 33.3984C85.5312 33.3984 84.0625 33.1641 82.6719 32.6953C81.2812 32.2109 80.0391 31.5156 78.9453 30.6094C77.8516 29.6875 76.9844 28.5 76.3438 27.0469C75.7031 25.5781 75.3828 23.9375 75.3828 22.125C75.3828 19.0469 76.4688 16.4297 78.6406 14.2734C80.8281 12.1016 83.5234 11.0156 86.7266 11.0156C88.9766 11.0156 90.9922 11.4766 92.7734 12.3984C94.5547 13.3047 95.9609 14.625 96.9922 16.3594C98.0234 18.0938 98.5391 20.0938 98.5391 22.3594ZM101.914 22.3594V39H100.227V22.3594C100.227 19.7812 99.6328 17.5 98.4453 15.5156C97.2734 13.5156 95.6641 11.9844 93.6172 10.9219C91.5703 9.85938 89.2734 9.32812 86.7266 9.32812C84.3047 9.32812 82.0938 9.90625 80.0938 11.0625C78.0938 12.2031 76.5234 13.75 75.3828 15.7031C74.2578 17.6562 73.6953 19.7969 73.6953 22.125C73.6953 24.125 74.0625 25.9531 74.7969 27.6094C75.5312 29.25 76.5156 30.6016 77.75 31.6641C79 32.7266 80.4141 33.5547 81.9922 34.1484C83.5859 34.7266 85.25 35.0156 86.9844 35.0156C88.75 35.0156 90.4844 34.6484 92.1875 33.9141V35.625C90.4062 36.2969 88.6562 36.6328 86.9375 36.6328C84.2344 36.6328 81.75 36.0234 79.4844 34.8047C77.2188 33.5859 75.4062 31.8594 74.0469 29.625C72.6875 27.3906 72.0078 24.8906 72.0078 22.125C72.0078 20.1562 72.3828 18.2812 73.1328 16.5C73.8984 14.7188 74.9297 13.1797 76.2266 11.8828C77.5234 10.5859 79.0859 9.55469 80.9141 8.78906C82.7422 8.02344 84.6797 7.64062 86.7266 7.64062C89.5859 7.64062 92.1641 8.25 94.4609 9.46875C96.7734 10.6875 98.5938 12.4219 99.9219 14.6719C101.25 16.9219 101.914 19.4844 101.914 22.3594ZM105.289 22.3594V39H103.602V22.3594C103.602 19.1719 102.859 16.3281 101.375 13.8281C99.8906 11.3125 97.8672 9.375 95.3047 8.01562C92.7422 6.64062 89.8828 5.95312 86.7266 5.95312C83.6953 5.95312 80.9219 6.67969 78.4062 8.13281C75.8906 9.58594 73.9141 11.5547 72.4766 14.0391C71.0391 16.5078 70.3203 19.2031 70.3203 22.125C70.3203 24.0469 70.625 25.875 71.2344 27.6094C71.8594 29.3281 72.7031 30.8359 73.7656 32.1328C74.8438 33.4141 76.0781 34.5234 77.4688 35.4609C78.875 36.3984 80.3828 37.1094 81.9922 37.5938C83.6172 38.0781 85.2656 38.3203 86.9375 38.3203C88.7812 38.3203 90.5312 37.9688 92.1875 37.2656V39C90.4531 39.6094 88.6719 39.9141 86.8438 39.9141C84.9531 39.9141 83.1094 39.6484 81.3125 39.1172C79.5312 38.5859 77.875 37.8047 76.3438 36.7734C74.8281 35.7266 73.4922 34.5 72.3359 33.0938C71.1797 31.6719 70.2734 30.0156 69.6172 28.125C68.9609 26.2344 68.6328 24.2344 68.6328 22.125C68.6328 19.7031 69.0859 17.3984 69.9922 15.2109C70.9141 13.0078 72.1641 11.1094 73.7422 9.51562C75.3359 7.90625 77.2578 6.63281 79.5078 5.69531C81.7734 4.74219 84.1797 4.26562 86.7266 4.26562C89.3203 4.26562 91.7578 4.70312 94.0391 5.57812C96.3203 6.45312 98.2891 7.67188 99.9453 9.23438C101.602 10.7812 102.906 12.6875 103.859 14.9531C104.812 17.2188 105.289 19.6875 105.289 22.3594ZM136.086 25.3828L134.398 22.3125V5.25H136.086V25.3828ZM139.461 31.2188L137.773 28.3594V5.25H139.461V31.2188ZM116.211 18.8672L117.898 21.9375V39H116.211V18.8672ZM112.836 12.7969L114.523 15.8906V39H112.836V12.7969ZM113.422 5.25H115.391L134.938 39H132.969L113.422 5.25ZM117.406 5.25H119.398L138.922 39H136.906L117.406 5.25ZM121.367 5.25H123.336L141.148 36.0703V5.25H142.836V39H140.844L121.367 5.25ZM111.148 8.15625V39H109.461V5.25H111.477L130.953 39H129.008L111.148 8.15625ZM162.758 22.9453H160.086C156.805 22.9453 154.281 22.2812 152.516 20.9531C150.75 19.6094 149.867 17.7656 149.867 15.4219C149.867 13.2344 150.906 11.4141 152.984 9.96094C155.062 8.49219 157.977 7.75781 161.727 7.75781C164.227 7.75781 166.555 8.10156 168.711 8.78906C170.883 9.47656 172.688 10.4453 174.125 11.6953L172.812 12.75C171.531 11.7031 169.922 10.8906 167.984 10.3125C166.047 9.73438 163.961 9.44531 161.727 9.44531C158.43 9.44531 155.906 10.0078 154.156 11.1328C152.422 12.2578 151.555 13.6875 151.555 15.4219C151.555 17.2969 152.266 18.7422 153.688 19.7578C155.125 20.7578 157.258 21.2578 160.086 21.2578H162.664C165.992 21.2578 168.539 21.9297 170.305 23.2734C172.086 24.6016 172.977 26.4375 172.977 28.7812C172.977 30.9688 171.938 32.7969 169.859 34.2656C167.781 35.7188 164.867 36.4453 161.117 36.4453C158.617 36.4453 156.281 36.1016 154.109 35.4141C151.953 34.7266 150.156 33.7578 148.719 32.5078L150.031 31.4531C151.312 32.5 152.922 33.3125 154.859 33.8906C156.797 34.4688 158.883 34.7578 161.117 34.7578C164.414 34.7578 166.93 34.1953 168.664 33.0703C170.414 31.9453 171.289 30.5156 171.289 28.7812C171.289 26.9062 170.57 25.4688 169.133 24.4688C167.711 23.4531 165.586 22.9453 162.758 22.9453ZM162.758 26.3203H160.086C155.742 26.3203 152.391 25.3359 150.031 23.3672C147.672 21.3828 146.492 18.7344 146.492 15.4219C146.492 13.9062 146.828 12.4844 147.5 11.1562C148.172 9.82812 149.133 8.66406 150.383 7.66406C151.648 6.64844 153.258 5.85156 155.211 5.27344C157.164 4.67969 159.336 4.38281 161.727 4.38281C164.742 4.38281 167.562 4.84375 170.188 5.76562C172.812 6.67188 175 7.94531 176.75 9.58594L175.391 10.5938C173.797 9.15625 171.805 8.04688 169.414 7.26562C167.023 6.46875 164.461 6.07031 161.727 6.07031C157.508 6.07031 154.195 6.96094 151.789 8.74219C149.383 10.5234 148.18 12.75 148.18 15.4219C148.18 18.25 149.211 20.4922 151.273 22.1484C153.336 23.8047 156.273 24.6328 160.086 24.6328H162.664C167.289 24.6328 169.602 26.0156 169.602 28.7812C169.602 30.0312 168.891 31.0625 167.469 31.875C166.062 32.6719 163.945 33.0703 161.117 33.0703C159.133 33.0703 157.289 32.8438 155.586 32.3906C153.883 31.9219 152.477 31.2578 151.367 30.3984L152.703 29.3672C154.656 30.7109 157.461 31.3828 161.117 31.3828C163.461 31.3828 165.18 31.1406 166.273 30.6562C167.367 30.1719 167.914 29.5469 167.914 28.7812C167.914 27.8906 167.531 27.2578 166.766 26.8828C166 26.5078 164.664 26.3203 162.758 26.3203ZM162.758 19.5703H160.086C155.523 19.5703 153.242 18.1875 153.242 15.4219C153.242 14.1719 153.945 13.1484 155.352 12.3516C156.773 11.5391 158.898 11.1328 161.727 11.1328C163.711 11.1328 165.555 11.3672 167.258 11.8359C168.961 12.2891 170.367 12.9453 171.477 13.8047L170.141 14.8359C168.188 13.4922 165.383 12.8203 161.727 12.8203C159.383 12.8203 157.664 13.0625 156.57 13.5469C155.477 14.0312 154.93 14.6562 154.93 15.4219C154.93 16.3125 155.312 16.9453 156.078 17.3203C156.844 17.6953 158.18 17.8828 160.086 17.8828H162.758C167.102 17.8828 170.453 18.875 172.812 20.8594C175.172 22.8281 176.352 25.4688 176.352 28.7812C176.352 30.2969 176.016 31.7188 175.344 33.0469C174.672 34.375 173.703 35.5469 172.438 36.5625C171.188 37.5625 169.586 38.3594 167.633 38.9531C165.68 39.5312 163.508 39.8203 161.117 39.8203C158.102 39.8203 155.281 39.3672 152.656 38.4609C150.031 37.5391 147.844 36.2578 146.094 34.6172L147.453 33.6094C149.047 35.0469 151.039 36.1641 153.43 36.9609C155.82 37.7422 158.383 38.1328 161.117 38.1328C165.336 38.1328 168.648 37.2422 171.055 35.4609C173.461 33.6797 174.664 31.4531 174.664 28.7812C174.664 25.9531 173.633 23.7109 171.57 22.0547C169.508 20.3984 166.57 19.5703 162.758 19.5703ZM186.031 14.6016H187.719V39H186.031V14.6016ZM179.281 6.9375V5.25H204.594V6.9375H179.281ZM179.281 10.3125V8.625H204.594V10.3125H179.281ZM179.281 13.6875V12H204.594V13.6875H179.281ZM196.156 14.6016H197.844V39H196.156V14.6016ZM192.781 14.6016H194.469V39H192.781V14.6016ZM189.406 14.6016H191.094V39H189.406V14.6016ZM216.758 39H215.07V5.25H216.758V39ZM213.383 39H211.695V5.25H213.383V39ZM210.008 39H208.32V5.25H210.008V39ZM220.133 30.5625H236.281V32.25H220.133V33.9375H236.281V35.625H220.133V37.3125H236.281V39H218.445V5.25H236.281V6.9375H220.133V8.625H236.281V10.3125H220.133V12H236.281V13.6875H220.133V17.8828H235.344V19.5703H220.133V21.2578H235.344V22.9453H220.133V24.6328H235.344V26.3203H220.133V30.5625ZM253.086 22.875H263.258C264.602 22.875 265.742 22.4531 266.68 21.6094C267.617 20.7656 268.086 19.5781 268.086 18.0469C268.086 16.9219 267.594 15.9141 266.609 15.0234C265.641 14.1328 264.523 13.6875 263.258 13.6875H248.773V39H247.086V12H263.258C264.992 12 266.508 12.6094 267.805 13.8281C269.117 15.0469 269.773 16.4531 269.773 18.0469C269.773 20.0312 269.141 21.6172 267.875 22.8047C266.609 23.9766 265.07 24.5625 263.258 24.5625H253.086V22.875ZM253.086 26.25H263.258C265.508 26.25 267.438 25.4844 269.047 23.9531C270.656 22.4219 271.461 20.4531 271.461 18.0469C271.461 16 270.641 14.2031 269 12.6562C267.359 11.0938 265.445 10.3125 263.258 10.3125H245.398V39H243.711V8.625H263.258C265.914 8.625 268.227 9.57031 270.195 11.4609C272.164 13.3359 273.148 15.5312 273.148 18.0469C273.148 20.8594 272.172 23.2109 270.219 25.1016C268.281 26.9922 265.961 27.9375 263.258 27.9375H253.086V26.25ZM253.086 29.625H263.258C265.336 29.625 267.258 29.125 269.023 28.125C270.789 27.125 272.195 25.7344 273.242 23.9531C274.305 22.1719 274.836 20.2031 274.836 18.0469C274.836 16.0938 274.312 14.2656 273.266 12.5625C272.219 10.8438 270.797 9.47656 269 8.46094C267.219 7.44531 265.305 6.9375 263.258 6.9375H242.023V39H240.336V5.25H263.258C265.023 5.25 266.719 5.60156 268.344 6.30469C269.984 6.99219 271.398 7.91406 272.586 9.07031C273.773 10.2109 274.727 11.5703 275.445 13.1484C276.164 14.7266 276.523 16.3594 276.523 18.0469C276.523 20.7812 275.898 23.1719 274.648 25.2188C273.398 27.25 271.719 28.7969 269.609 29.8594L273.148 39H271.344L267.992 30.5391C267.57 30.6797 267.078 30.8203 266.516 30.9609L269.68 39H267.875L264.781 31.2422C264.297 31.2891 263.789 31.3125 263.258 31.3125L266.234 39H264.453L261.5 31.3125H259.977L262.812 39H261.031L258.172 31.3125H253.086V29.625ZM252.148 39H250.461V15.375H263.258C264.133 15.375 264.875 15.6406 265.484 16.1719C266.094 16.6875 266.398 17.3125 266.398 18.0469C266.398 20.1406 265.352 21.1875 263.258 21.1875H253.086V19.5H263.258C264.227 19.5 264.711 19.0156 264.711 18.0469C264.711 17.7812 264.562 17.5547 264.266 17.3672C263.984 17.1641 263.648 17.0625 263.258 17.0625H252.148V39Z" fill="white"/>
</svg>
