<svg width="554" height="80" viewBox="0 0 554 80" fill="none" xmlns="http://www.w3.org/2000/svg">
<path d="M0.859375 3.75V0.375H51.4844V3.75H0.859375ZM0.859375 10.5V7.125H51.4844V10.5H0.859375ZM0.859375 17.25V13.875H51.4844V17.25H37.9844V78H34.6094V17.25H31.2344V78H27.8594V17.25H24.4844V78H21.1094V17.25H17.7344V78H14.3594V17.25H0.859375ZM84.6719 45.75H105.016C107.703 45.75 109.984 44.9062 111.859 43.2188C113.734 41.5312 114.672 39.1562 114.672 36.0938C114.672 33.8438 113.688 31.8281 111.719 30.0469C109.781 28.2656 107.547 27.375 105.016 27.375H76.0469V78H72.6719V24H105.016C108.484 24 111.516 25.2188 114.109 27.6562C116.734 30.0938 118.047 32.9062 118.047 36.0938C118.047 40.0625 116.781 43.2344 114.25 45.6094C111.719 47.9531 108.641 49.125 105.016 49.125H84.6719V45.75ZM84.6719 52.5H105.016C109.516 52.5 113.375 50.9688 116.594 47.9062C119.812 44.8438 121.422 40.9062 121.422 36.0938C121.422 32 119.781 28.4062 116.5 25.3125C113.219 22.1875 109.391 20.625 105.016 20.625H69.2969V78H65.9219V17.25H105.016C110.328 17.25 114.953 19.1406 118.891 22.9219C122.828 26.6719 124.797 31.0625 124.797 36.0938C124.797 41.7188 122.844 46.4219 118.938 50.2031C115.062 53.9844 110.422 55.875 105.016 55.875H84.6719V52.5ZM84.6719 59.25H105.016C109.172 59.25 113.016 58.25 116.547 56.25C120.078 54.25 122.891 51.4688 124.984 47.9062C127.109 44.3438 128.172 40.4062 128.172 36.0938C128.172 32.1875 127.125 28.5312 125.031 25.125C122.938 21.6875 120.094 18.9531 116.5 16.9219C112.938 14.8906 109.109 13.875 105.016 13.875H62.5469V78H59.1719V10.5H105.016C108.547 10.5 111.938 11.2031 115.188 12.6094C118.469 13.9844 121.297 15.8281 123.672 18.1406C126.047 20.4219 127.953 23.1406 129.391 26.2969C130.828 29.4531 131.547 32.7188 131.547 36.0938C131.547 41.5625 130.297 46.3438 127.797 50.4375C125.297 54.5 121.938 57.5938 117.719 59.7188L124.797 78H121.188L114.484 61.0781C113.641 61.3594 112.656 61.6406 111.531 61.9219L117.859 78H114.25L108.062 62.4844C107.094 62.5781 106.078 62.625 105.016 62.625L110.969 78H107.406L101.5 62.625H98.4531L104.125 78H100.562L94.8438 62.625H84.6719V59.25ZM82.7969 78H79.4219V30.75H105.016C106.766 30.75 108.25 31.2812 109.469 32.3438C110.688 33.375 111.297 34.625 111.297 36.0938C111.297 40.2812 109.203 42.375 105.016 42.375H84.6719V39H105.016C106.953 39 107.922 38.0312 107.922 36.0938C107.922 35.5625 107.625 35.1094 107.031 34.7344C106.469 34.3281 105.797 34.125 105.016 34.125H82.7969V78ZM186.953 44.7188C186.953 40.7188 185.719 37.625 183.25 35.4375C180.781 33.25 177.516 32.1562 173.453 32.1562C170.016 32.1562 167.062 33.3438 164.594 35.7188C162.125 38.0938 160.891 40.9375 160.891 44.25C160.891 46.125 161.141 47.8125 161.641 49.3125C162.141 50.7812 162.812 52.0156 163.656 53.0156C164.531 53.9844 165.562 54.7969 166.75 55.4531C167.938 56.0781 169.172 56.5312 170.453 56.8125C171.766 57.0938 173.156 57.2344 174.625 57.2344C178.188 57.2344 181.438 56.3594 184.375 54.6094V57.9844C181.344 59.5781 178.078 60.375 174.578 60.375C172.328 60.375 170.203 60.0781 168.203 59.4844C166.234 58.8594 164.438 57.9375 162.812 56.7188C161.188 55.4688 159.891 53.7812 158.922 51.6562C157.984 49.5 157.516 47.0312 157.516 44.25C157.516 39.9375 159.031 36.2812 162.062 33.2812C165.094 30.2812 168.891 28.7812 173.453 28.7812C178.484 28.7812 182.547 30.2031 185.641 33.0469C188.766 35.8594 190.328 39.75 190.328 44.7188V78H186.953V44.7188ZM197.078 44.7188V78H193.703V44.7188C193.703 38.8125 191.812 34.125 188.031 30.6562C184.25 27.1562 179.391 25.4062 173.453 25.4062C167.953 25.4062 163.359 27.2344 159.672 30.8906C155.984 34.5469 154.141 39 154.141 44.25C154.141 47.4375 154.688 50.2969 155.781 52.8281C156.906 55.3594 158.422 57.3906 160.328 58.9219C162.234 60.4531 164.359 61.625 166.703 62.4375C169.078 63.2188 171.578 63.6094 174.203 63.6094C177.766 63.6094 181.156 62.7812 184.375 61.125V64.6875C181 66.0938 177.594 66.7969 174.156 66.7969C171.062 66.7969 168.125 66.3281 165.344 65.3906C162.562 64.4219 160.078 63.0312 157.891 61.2188C155.703 59.375 153.969 57 152.688 54.0938C151.406 51.1562 150.766 47.875 150.766 44.25C150.766 38.0938 152.938 32.8594 157.281 28.5469C161.656 24.2031 167.047 22.0312 173.453 22.0312C177.953 22.0312 181.984 22.9531 185.547 24.7969C189.109 26.6094 191.922 29.25 193.984 32.7188C196.047 36.1875 197.078 40.1875 197.078 44.7188ZM203.828 44.7188V78H200.453V44.7188C200.453 39.5625 199.266 35 196.891 31.0312C194.547 27.0312 191.328 23.9688 187.234 21.8438C183.141 19.7188 178.547 18.6562 173.453 18.6562C168.609 18.6562 164.188 19.8125 160.188 22.125C156.188 24.4062 153.047 27.5 150.766 31.4062C148.516 35.3125 147.391 39.5938 147.391 44.25C147.391 48.25 148.125 51.9062 149.594 55.2188C151.062 58.5 153.031 61.2031 155.5 63.3281C158 65.4531 160.828 67.1094 163.984 68.2969C167.172 69.4531 170.5 70.0312 173.969 70.0312C177.5 70.0312 180.969 69.2969 184.375 67.8281V71.25C180.812 72.5938 177.312 73.2656 173.875 73.2656C168.469 73.2656 163.5 72.0469 158.969 69.6094C154.438 67.1719 150.812 63.7188 148.094 59.25C145.375 54.7812 144.016 49.7812 144.016 44.25C144.016 40.3125 144.766 36.5625 146.266 33C147.797 29.4375 149.859 26.3594 152.453 23.7656C155.047 21.1719 158.172 19.1094 161.828 17.5781C165.484 16.0469 169.359 15.2812 173.453 15.2812C179.172 15.2812 184.328 16.5 188.922 18.9375C193.547 21.375 197.188 24.8438 199.844 29.3438C202.5 33.8438 203.828 38.9688 203.828 44.7188ZM210.578 44.7188V78H207.203V44.7188C207.203 38.3438 205.719 32.6562 202.75 27.6562C199.781 22.625 195.734 18.75 190.609 16.0312C185.484 13.2812 179.766 11.9062 173.453 11.9062C167.391 11.9062 161.844 13.3594 156.812 16.2656C151.781 19.1719 147.828 23.1094 144.953 28.0781C142.078 33.0156 140.641 38.4062 140.641 44.25C140.641 48.0938 141.25 51.75 142.469 55.2188C143.719 58.6562 145.406 61.6719 147.531 64.2656C149.688 66.8281 152.156 69.0469 154.938 70.9219C157.75 72.7969 160.766 74.2188 163.984 75.1875C167.234 76.1562 170.531 76.6406 173.875 76.6406C177.562 76.6406 181.062 75.9375 184.375 74.5312V78C180.906 79.2188 177.344 79.8281 173.688 79.8281C169.906 79.8281 166.219 79.2969 162.625 78.2344C159.062 77.1719 155.75 75.6094 152.688 73.5469C149.656 71.4531 146.984 69 144.672 66.1875C142.359 63.3438 140.547 60.0312 139.234 56.25C137.922 52.4688 137.266 48.4688 137.266 44.25C137.266 39.4062 138.172 34.7969 139.984 30.4219C141.828 26.0156 144.328 22.2188 147.484 19.0312C150.672 15.8125 154.516 13.2656 159.016 11.3906C163.547 9.48438 168.359 8.53125 173.453 8.53125C178.641 8.53125 183.516 9.40625 188.078 11.1562C192.641 12.9062 196.578 15.3438 199.891 18.4688C203.203 21.5625 205.812 25.375 207.719 29.9062C209.625 34.4375 210.578 39.375 210.578 44.7188ZM272.172 50.7656L268.797 44.625V10.5H272.172V50.7656ZM278.922 62.4375L275.547 56.7188V10.5H278.922V62.4375ZM232.422 37.7344L235.797 43.875V78H232.422V37.7344ZM225.672 25.5938L229.047 31.7812V78H225.672V25.5938ZM226.844 10.5H230.781L269.875 78H265.938L226.844 10.5ZM234.812 10.5H238.797L277.844 78H273.812L234.812 10.5ZM242.734 10.5H246.672L282.297 72.1406V10.5H285.672V78H281.688L242.734 10.5ZM222.297 16.3125V78H218.922V10.5H222.953L261.906 78H258.016L222.297 16.3125ZM325.516 45.8906H320.172C313.609 45.8906 308.562 44.5625 305.031 41.9062C301.5 39.2188 299.734 35.5312 299.734 30.8438C299.734 26.4688 301.812 22.8281 305.969 19.9219C310.125 16.9844 315.953 15.5156 323.453 15.5156C328.453 15.5156 333.109 16.2031 337.422 17.5781C341.766 18.9531 345.375 20.8906 348.25 23.3906L345.625 25.5C343.062 23.4062 339.844 21.7812 335.969 20.625C332.094 19.4688 327.922 18.8906 323.453 18.8906C316.859 18.8906 311.812 20.0156 308.312 22.2656C304.844 24.5156 303.109 27.375 303.109 30.8438C303.109 34.5938 304.531 37.4844 307.375 39.5156C310.25 41.5156 314.516 42.5156 320.172 42.5156H325.328C331.984 42.5156 337.078 43.8594 340.609 46.5469C344.172 49.2031 345.953 52.875 345.953 57.5625C345.953 61.9375 343.875 65.5938 339.719 68.5312C335.562 71.4375 329.734 72.8906 322.234 72.8906C317.234 72.8906 312.562 72.2031 308.219 70.8281C303.906 69.4531 300.312 67.5156 297.438 65.0156L300.062 62.9062C302.625 65 305.844 66.625 309.719 67.7812C313.594 68.9375 317.766 69.5156 322.234 69.5156C328.828 69.5156 333.859 68.3906 337.328 66.1406C340.828 63.8906 342.578 61.0312 342.578 57.5625C342.578 53.8125 341.141 50.9375 338.266 48.9375C335.422 46.9062 331.172 45.8906 325.516 45.8906ZM325.516 52.6406H320.172C311.484 52.6406 304.781 50.6719 300.062 46.7344C295.344 42.7656 292.984 37.4688 292.984 30.8438C292.984 27.8125 293.656 24.9688 295 22.3125C296.344 19.6562 298.266 17.3281 300.766 15.3281C303.297 13.2969 306.516 11.7031 310.422 10.5469C314.328 9.35938 318.672 8.76562 323.453 8.76562C329.484 8.76562 335.125 9.6875 340.375 11.5312C345.625 13.3438 350 15.8906 353.5 19.1719L350.781 21.1875C347.594 18.3125 343.609 16.0938 338.828 14.5312C334.047 12.9375 328.922 12.1406 323.453 12.1406C315.016 12.1406 308.391 13.9219 303.578 17.4844C298.766 21.0469 296.359 25.5 296.359 30.8438C296.359 36.5 298.422 40.9844 302.547 44.2969C306.672 47.6094 312.547 49.2656 320.172 49.2656H325.328C334.578 49.2656 339.203 52.0312 339.203 57.5625C339.203 60.0625 337.781 62.125 334.938 63.75C332.125 65.3438 327.891 66.1406 322.234 66.1406C318.266 66.1406 314.578 65.6875 311.172 64.7812C307.766 63.8438 304.953 62.5156 302.734 60.7969L305.406 58.7344C309.312 61.4219 314.922 62.7656 322.234 62.7656C326.922 62.7656 330.359 62.2812 332.547 61.3125C334.734 60.3438 335.828 59.0938 335.828 57.5625C335.828 55.7812 335.062 54.5156 333.531 53.7656C332 53.0156 329.328 52.6406 325.516 52.6406ZM325.516 39.1406H320.172C311.047 39.1406 306.484 36.375 306.484 30.8438C306.484 28.3438 307.891 26.2969 310.703 24.7031C313.547 23.0781 317.797 22.2656 323.453 22.2656C327.422 22.2656 331.109 22.7344 334.516 23.6719C337.922 24.5781 340.734 25.8906 342.953 27.6094L340.281 29.6719C336.375 26.9844 330.766 25.6406 323.453 25.6406C318.766 25.6406 315.328 26.125 313.141 27.0938C310.953 28.0625 309.859 29.3125 309.859 30.8438C309.859 32.625 310.625 33.8906 312.156 34.6406C313.688 35.3906 316.359 35.7656 320.172 35.7656H325.516C334.203 35.7656 340.906 37.75 345.625 41.7188C350.344 45.6562 352.703 50.9375 352.703 57.5625C352.703 60.5938 352.031 63.4375 350.688 66.0938C349.344 68.75 347.406 71.0938 344.875 73.125C342.375 75.125 339.172 76.7188 335.266 77.9062C331.359 79.0625 327.016 79.6406 322.234 79.6406C316.203 79.6406 310.562 78.7344 305.312 76.9219C300.062 75.0781 295.688 72.5156 292.188 69.2344L294.906 67.2188C298.094 70.0938 302.078 72.3281 306.859 73.9219C311.641 75.4844 316.766 76.2656 322.234 76.2656C330.672 76.2656 337.297 74.4844 342.109 70.9219C346.922 67.3594 349.328 62.9062 349.328 57.5625C349.328 51.9062 347.266 47.4219 343.141 44.1094C339.016 40.7969 333.141 39.1406 325.516 39.1406ZM372.062 29.2031H375.438V78H372.062V29.2031ZM358.562 13.875V10.5H409.188V13.875H358.562ZM358.562 20.625V17.25H409.188V20.625H358.562ZM358.562 27.375V24H409.188V27.375H358.562ZM392.312 29.2031H395.688V78H392.312V29.2031ZM385.562 29.2031H388.938V78H385.562V29.2031ZM378.812 29.2031H382.188V78H378.812V29.2031ZM433.516 78H430.141V10.5H433.516V78ZM426.766 78H423.391V10.5H426.766V78ZM420.016 78H416.641V10.5H420.016V78ZM440.266 61.125H472.562V64.5H440.266V67.875H472.562V71.25H440.266V74.625H472.562V78H436.891V10.5H472.562V13.875H440.266V17.25H472.562V20.625H440.266V24H472.562V27.375H440.266V35.7656H470.688V39.1406H440.266V42.5156H470.688V45.8906H440.266V49.2656H470.688V52.6406H440.266V61.125ZM506.172 45.75H526.516C529.203 45.75 531.484 44.9062 533.359 43.2188C535.234 41.5312 536.172 39.1562 536.172 36.0938C536.172 33.8438 535.188 31.8281 533.219 30.0469C531.281 28.2656 529.047 27.375 526.516 27.375H497.547V78H494.172V24H526.516C529.984 24 533.016 25.2188 535.609 27.6562C538.234 30.0938 539.547 32.9062 539.547 36.0938C539.547 40.0625 538.281 43.2344 535.75 45.6094C533.219 47.9531 530.141 49.125 526.516 49.125H506.172V45.75ZM506.172 52.5H526.516C531.016 52.5 534.875 50.9688 538.094 47.9062C541.312 44.8438 542.922 40.9062 542.922 36.0938C542.922 32 541.281 28.4062 538 25.3125C534.719 22.1875 530.891 20.625 526.516 20.625H490.797V78H487.422V17.25H526.516C531.828 17.25 536.453 19.1406 540.391 22.9219C544.328 26.6719 546.297 31.0625 546.297 36.0938C546.297 41.7188 544.344 46.4219 540.438 50.2031C536.562 53.9844 531.922 55.875 526.516 55.875H506.172V52.5ZM506.172 59.25H526.516C530.672 59.25 534.516 58.25 538.047 56.25C541.578 54.25 544.391 51.4688 546.484 47.9062C548.609 44.3438 549.672 40.4062 549.672 36.0938C549.672 32.1875 548.625 28.5312 546.531 25.125C544.438 21.6875 541.594 18.9531 538 16.9219C534.438 14.8906 530.609 13.875 526.516 13.875H484.047V78H480.672V10.5H526.516C530.047 10.5 533.438 11.2031 536.688 12.6094C539.969 13.9844 542.797 15.8281 545.172 18.1406C547.547 20.4219 549.453 23.1406 550.891 26.2969C552.328 29.4531 553.047 32.7188 553.047 36.0938C553.047 41.5625 551.797 46.3438 549.297 50.4375C546.797 54.5 543.438 57.5938 539.219 59.7188L546.297 78H542.688L535.984 61.0781C535.141 61.3594 534.156 61.6406 533.031 61.9219L539.359 78H535.75L529.562 62.4844C528.594 62.5781 527.578 62.625 526.516 62.625L532.469 78H528.906L523 62.625H519.953L525.625 78H522.062L516.344 62.625H506.172V59.25ZM504.297 78H500.922V30.75H526.516C528.266 30.75 529.75 31.2812 530.969 32.3438C532.188 33.375 532.797 34.625 532.797 36.0938C532.797 40.2812 530.703 42.375 526.516 42.375H506.172V39H526.516C528.453 39 529.422 38.0312 529.422 36.0938C529.422 35.5625 529.125 35.1094 528.531 34.7344C527.969 34.3281 527.297 34.125 526.516 34.125H504.297V78Z" fill="white"/>
</svg>
